<svg xmlns="http://www.w3.org/2000/svg" width="32" height="32" fill="none" viewBox="0 0 32 32">
  <path fill="#fff" fill-rule="evenodd" d="M16 0c8.837 0 16 7.163 16 16s-7.163 16-16 16S0 24.837 0 16 7.163 0 16 0Zm3.208 12.378c-.83-.793-1.884-1.196-3.058-1.196-2.084 0-3.847 1.407-4.476 3.298-.16.48-.251.993-.251 1.52s.09 1.04.25 1.52c.63 1.89 2.393 3.298 4.477 3.298 1.076 0 1.993-.283 2.709-.763a3.68 3.68 0 0 0 1.596-2.415H16.15v-3.095h7.535c.094.524.145 1.07.145 1.637 0 2.436-.873 4.487-2.385 5.88C20.12 23.284 18.31 24 16.15 24A7.997 7.997 0 0 1 9 12.407 7.997 7.997 0 0 1 16.15 8c2.156 0 3.967.793 5.352 2.084l-2.294 2.294Z" clip-rule="evenodd"/>
</svg>
